# xmcd
#
# Track frame offsets: 
#        150
#        16332
#        32873
#        51475
#        66613
#        86206
#        108483
#        122736
#        144602
#
# Disc length: 2364 seconds
#
# Revision: 0
# Processed by: cddbd v1.5.2PL0 Copyright (c) Steve Scherf et al.
# Submitted via: ExactAudioCopy v1.3
#
DISCID=89093a09
DTITLE=Coyote Kings - Move
DYEAR=2011
DGENRE=Blues Rock
TTITLE0=Wanna Come Home
TTITLE1=Lil Sumpmm Sumpmm
TTITLE2=Only Love I know
TTITLE3=Upside Down Inside Out
TTITLE4=All Tangled Up
TTITLE5=Downtown
TTITLE6=Blacktop Never Stop
TTITLE7=Everything Changes
TTITLE8=Drive Me (Tribute)
EXTD=
EXTT0=
EXTT1=
EXTT2=
EXTT3=
EXTT4=
EXTT5=
EXTT6=
EXTT7=
EXTT8=
PLAYORDER=
